<svg width="100" height="100" viewBox="0 0 100 100" fill="none" xmlns="http://www.w3.org/2000/svg">
<path d="M57.0859 90.2881C59.7676 90.2883 61.9414 92.4628 61.9414 95.1445C61.9412 97.8261 59.7675 99.9998 57.0859 100H43.4883C40.8067 99.9997 38.633 97.8261 38.6328 95.1445C38.6328 92.4628 40.8066 90.2883 43.4883 90.2881H57.0859ZM85.6094 37.3105C88.0474 37.3105 90.0243 39.2866 90.0244 41.7246C90.0244 63.6672 72.2365 81.4558 50.2939 81.4561C28.3512 81.4561 10.5625 63.6674 10.5625 41.7246C10.5626 39.2866 12.5395 37.3105 14.9775 37.3105C17.4154 37.3108 19.3915 39.2868 19.3916 41.7246C19.3916 58.7912 33.2274 72.627 50.2939 72.627C67.3603 72.6267 81.1953 58.791 81.1953 41.7246C81.1954 39.2868 83.1715 37.3108 85.6094 37.3105ZM50.2988 2C63.5424 2 72.376 27.5088 72.376 39.6992C72.3759 51.8896 62.4892 63.8037 50.2988 63.8037C38.1085 63.8037 28.2305 51.8896 28.2305 39.6992C28.2305 27.5088 37.0552 2.00006 50.2988 2Z" fill="black"/>
</svg>
